<svg xmlns="http://www.w3.org/2000/svg" version="1.1" xmlns:xlink="http://www.w3.org/1999/xlink" xmlns:svgjs="http://svgjs.dev/svgjs" viewBox="0 0 18.203882790329924 3.459251703476845"><g transform="matrix(1,0,0,1,2.800241397795442,0.6669696017384226)"><g><path d=" M 0.0915 1.0739999999999998 L 0.0915 0.008999999999999897 L 0.5505 0.008999999999999897 Q 0.6285000000000001 0.008999999999999897 0.6945 0.04049999999999976 Q 0.7605000000000001 0.07199999999999984 0.8085 0.12524999999999986 Q 0.8565 0.17849999999999977 0.88275 0.24449999999999983 Q 0.909 0.3104999999999998 0.909 0.3779999999999998 Q 0.909 0.4724999999999998 0.86475 0.5564999999999999 Q 0.8205 0.6404999999999998 0.74175 0.6937499999999999 Q 0.663 0.7469999999999999 0.558 0.7469999999999999 L 0.384 0.7469999999999999 L 0.384 1.0739999999999998 L 0.0915 1.0739999999999998 M 0.384 0.4919999999999999 L 0.5385 0.4919999999999999 Q 0.5565 0.4919999999999999 0.5730000000000001 0.4814999999999998 Q 0.5895 0.47099999999999986 0.60075 0.4454999999999998 Q 0.612 0.4199999999999998 0.612 0.3779999999999998 Q 0.612 0.33299999999999985 0.5992500000000001 0.3082499999999998 Q 0.5865 0.28349999999999986 0.56775 0.2737499999999998 Q 0.549 0.2639999999999998 0.531 0.2639999999999998 L 0.384 0.2639999999999998 L 0.384 0.4919999999999999 M 1.0304787597656249 1.0739999999999998 L 1.0304787597656249 0.008999999999999897 L 1.519478759765625 0.008999999999999897 Q 1.5974787597656248 0.008999999999999897 1.663478759765625 0.04049999999999976 Q 1.729478759765625 0.07199999999999984 1.777478759765625 0.12524999999999986 Q 1.825478759765625 0.17849999999999977 1.8517287597656251 0.24449999999999983 Q 1.877978759765625 0.3104999999999998 1.877978759765625 0.3779999999999998 Q 1.877978759765625 0.4394999999999998 1.859978759765625 0.49649999999999983 Q 1.841978759765625 0.5534999999999999 1.807478759765625 0.6007499999999999 Q 1.7729787597656248 0.6479999999999999 1.724978759765625 0.6824999999999999 L 1.949978759765625 1.0739999999999998 L 1.6289787597656251 1.0739999999999998 L 1.4414787597656251 0.7469999999999999 L 1.322978759765625 0.7469999999999999 L 1.322978759765625 1.0739999999999998 L 1.0304787597656249 1.0739999999999998 M 1.322978759765625 0.4919999999999999 L 1.507478759765625 0.4919999999999999 Q 1.525478759765625 0.4919999999999999 1.541978759765625 0.4784999999999998 Q 1.558478759765625 0.46499999999999986 1.569728759765625 0.4394999999999998 Q 1.580978759765625 0.4139999999999998 1.580978759765625 0.3779999999999998 Q 1.580978759765625 0.3404999999999998 1.568228759765625 0.31574999999999986 Q 1.555478759765625 0.2909999999999998 1.536728759765625 0.27749999999999986 Q 1.517978759765625 0.2639999999999998 1.4999787597656251 0.2639999999999998 L 1.322978759765625 0.2639999999999998 L 1.322978759765625 0.4919999999999999 M 2.04746044921875 1.0739999999999998 L 2.04746044921875 0.008999999999999897 L 2.33996044921875 0.008999999999999897 L 2.33996044921875 1.0739999999999998 L 2.04746044921875 1.0739999999999998 M 3.3329853515625 1.0739999999999998 L 3.3329853515625 0.5129999999999998 L 3.1544853515625 0.9074999999999999 L 2.9984853515625 0.9074999999999999 L 2.8199853515625 0.5129999999999998 L 2.8199853515625 1.0739999999999998 L 2.5274853515625 1.0739999999999998 L 2.5274853515625 0.008999999999999897 L 2.8469853515625 0.008999999999999897 L 3.0764853515625 0.5099999999999998 L 3.3074853515625002 0.008999999999999897 L 3.6254853515625003 0.008999999999999897 L 3.6254853515625003 1.0739999999999998 L 3.3329853515625 1.0739999999999998 M 4.5719912109375 0.8189999999999998 L 4.5719912109375 1.0739999999999998 L 3.8129912109374997 1.0739999999999998 L 3.8129912109374997 0.008999999999999897 L 4.5584912109374995 0.008999999999999897 L 4.5584912109374995 0.2639999999999998 L 4.1054912109375 0.2639999999999998 L 4.1054912109375 0.4139999999999998 L 4.4924912109375 0.4139999999999998 L 4.4924912109375 0.6509999999999998 L 4.1054912109375 0.6509999999999998 L 4.1054912109375 0.8189999999999998 L 4.5719912109375 0.8189999999999998 M 5.177968505859375 1.0829999999999997 Q 5.050468505859375 1.0829999999999997 4.958968505859375 1.041 Q 4.8674685058593745 0.9989999999999999 4.809718505859375 0.9254999999999999 Q 4.751968505859375 0.8519999999999999 4.724968505859375 0.7567499999999998 Q 4.697968505859375 0.6614999999999998 4.697968505859375 0.5564999999999999 L 4.697968505859375 0.008999999999999897 L 4.990468505859375 0.008999999999999897 L 4.990468505859375 0.5564999999999999 Q 4.990468505859375 0.6089999999999998 5.000968505859375 0.6569999999999998 Q 5.011468505859375 0.7049999999999998 5.033968505859375 0.7424999999999998 Q 5.056468505859375 0.7799999999999998 5.091718505859375 0.8017499999999999 Q 5.1269685058593755 0.8234999999999999 5.177968505859375 0.8234999999999999 Q 5.230468505859375 0.8234999999999999 5.266468505859375 0.8017499999999999 Q 5.302468505859375 0.7799999999999998 5.324218505859375 0.7417499999999999 Q 5.345968505859375 0.7034999999999998 5.356468505859375 0.6554999999999999 Q 5.366968505859375 0.6074999999999998 5.366968505859375 0.5564999999999999 L 5.366968505859375 0.008999999999999897 L 5.659468505859375 0.008999999999999897 L 5.659468505859375 0.5564999999999999 Q 5.659468505859375 0.6674999999999998 5.630218505859375 0.7634999999999998 Q 5.600968505859375 0.8594999999999998 5.542468505859375 0.9314999999999998 Q 5.483968505859375 1.0034999999999998 5.393218505859375 1.0432499999999998 Q 5.302468505859375 1.0829999999999997 5.177968505859375 1.0829999999999997 M 5.83193994140625 1.0739999999999998 L 5.83193994140625 0.008999999999999897 L 6.32093994140625 0.008999999999999897 Q 6.39893994140625 0.008999999999999897 6.46493994140625 0.04049999999999976 Q 6.53093994140625 0.07199999999999984 6.57893994140625 0.12524999999999986 Q 6.62693994140625 0.17849999999999977 6.65318994140625 0.24449999999999983 Q 6.67943994140625 0.3104999999999998 6.67943994140625 0.3779999999999998 Q 6.67943994140625 0.4394999999999998 6.66143994140625 0.49649999999999983 Q 6.64343994140625 0.5534999999999999 6.60893994140625 0.6007499999999999 Q 6.57443994140625 0.6479999999999999 6.526439941406251 0.6824999999999999 L 6.75143994140625 1.0739999999999998 L 6.4304399414062505 1.0739999999999998 L 6.2429399414062505 0.7469999999999999 L 6.1244399414062505 0.7469999999999999 L 6.1244399414062505 1.0739999999999998 L 5.83193994140625 1.0739999999999998 M 6.1244399414062505 0.4919999999999999 L 6.30893994140625 0.4919999999999999 Q 6.32693994140625 0.4919999999999999 6.34343994140625 0.4784999999999998 Q 6.3599399414062505 0.46499999999999986 6.37118994140625 0.4394999999999998 Q 6.3824399414062505 0.4139999999999998 6.3824399414062505 0.3779999999999998 Q 6.3824399414062505 0.3404999999999998 6.36968994140625 0.31574999999999986 Q 6.35693994140625 0.2909999999999998 6.338189941406251 0.27749999999999986 Q 6.31943994140625 0.2639999999999998 6.30143994140625 0.2639999999999998 L 6.1244399414062505 0.2639999999999998 L 6.1244399414062505 0.4919999999999999 M 7.493921630859376 0.3569999999999999 Q 7.493921630859376 0.3569999999999999 7.468421630859376 0.34199999999999986 Q 7.4429216308593755 0.32699999999999985 7.400921630859376 0.3082499999999998 Q 7.358921630859375 0.28949999999999987 7.309421630859376 0.27449999999999986 Q 7.259921630859376 0.25949999999999984 7.211921630859376 0.25949999999999984 Q 7.174421630859375 0.25949999999999984 7.150421630859375 0.27149999999999985 Q 7.126421630859375 0.28349999999999986 7.126421630859375 0.31199999999999983 Q 7.126421630859375 0.33899999999999986 7.150421630859375 0.3554999999999998 Q 7.174421630859375 0.3719999999999998 7.218671630859375 0.38549999999999984 Q 7.262921630859376 0.3989999999999998 7.3244216308593755 0.41849999999999987 Q 7.423421630859376 0.4484999999999998 7.495421630859376 0.4874999999999998 Q 7.567421630859375 0.5264999999999999 7.6064216308593755 0.5872499999999998 Q 7.645421630859375 0.6479999999999999 7.645421630859375 0.7484999999999998 Q 7.645421630859375 0.8444999999999998 7.610921630859376 0.9097499999999998 Q 7.576421630859375 0.9749999999999999 7.517921630859376 1.0139999999999998 Q 7.459421630859375 1.053 7.387421630859375 1.07025 Q 7.315421630859375 1.0875 7.240421630859375 1.0875 Q 7.163921630859376 1.0875 7.080671630859375 1.0717499999999998 Q 6.9974216308593755 1.0559999999999998 6.919421630859375 1.0282499999999999 Q 6.841421630859375 1.0005 6.776921630859375 0.9629999999999999 L 6.9029216308593755 0.7064999999999999 Q 6.9029216308593755 0.7064999999999999 6.932921630859376 0.7244999999999998 Q 6.962921630859375 0.7424999999999998 7.012421630859375 0.7649999999999999 Q 7.061921630859375 0.7874999999999999 7.122671630859375 0.8054999999999999 Q 7.1834216308593755 0.8234999999999999 7.244921630859375 0.8234999999999999 Q 7.292921630859375 0.8234999999999999 7.311671630859375 0.8107499999999999 Q 7.330421630859376 0.7979999999999998 7.330421630859376 0.7769999999999999 Q 7.330421630859376 0.7454999999999998 7.297421630859375 0.7282499999999998 Q 7.264421630859375 0.7109999999999999 7.211171630859376 0.6952499999999998 Q 7.157921630859375 0.6794999999999998 7.093421630859376 0.6584999999999999 Q 7.000421630859376 0.6269999999999998 6.940421630859375 0.5872499999999998 Q 6.8804216308593755 0.5474999999999999 6.851921630859375 0.4927499999999998 Q 6.823421630859375 0.43799999999999983 6.823421630859375 0.3599999999999999 Q 6.823421630859375 0.24149999999999983 6.8789216308593755 0.1619999999999998 Q 6.934421630859375 0.0824999999999998 7.025171630859376 0.04124999999999979 Q 7.115921630859376 -2.220446049250313e-16 7.220921630859375 -2.220446049250313e-16 Q 7.298921630859375 -2.220446049250313e-16 7.3716716308593755 0.018749999999999822 Q 7.444421630859376 0.03749999999999987 7.508171630859375 0.06449999999999978 Q 7.571921630859375 0.0914999999999998 7.619921630859375 0.11549999999999983 L 7.493921630859376 0.3569999999999999 M 7.762428222656251 0.7874999999999999 L 7.762428222656251 0.5324999999999999 L 8.23192822265625 0.5324999999999999 L 8.23192822265625 0.7874999999999999 L 7.762428222656251 0.7874999999999999 M 8.402965576171875 1.0739999999999998 L 8.402965576171875 0.008999999999999897 L 8.861965576171874 0.008999999999999897 Q 8.939965576171875 0.008999999999999897 9.005965576171874 0.04049999999999976 Q 9.071965576171875 0.07199999999999984 9.119965576171875 0.12524999999999986 Q 9.167965576171875 0.17849999999999977 9.194215576171874 0.24449999999999983 Q 9.220465576171875 0.3104999999999998 9.220465576171875 0.3779999999999998 Q 9.220465576171875 0.4724999999999998 9.176215576171876 0.5564999999999999 Q 9.131965576171876 0.6404999999999998 9.053215576171874 0.6937499999999999 Q 8.974465576171875 0.7469999999999999 8.869465576171875 0.7469999999999999 L 8.695465576171875 0.7469999999999999 L 8.695465576171875 1.0739999999999998 L 8.402965576171875 1.0739999999999998 M 8.695465576171875 0.4919999999999999 L 8.849965576171876 0.4919999999999999 Q 8.867965576171875 0.4919999999999999 8.884465576171875 0.4814999999999998 Q 8.900965576171874 0.47099999999999986 8.912215576171874 0.4454999999999998 Q 8.923465576171875 0.4199999999999998 8.923465576171875 0.3779999999999998 Q 8.923465576171875 0.33299999999999985 8.910715576171874 0.3082499999999998 Q 8.897965576171874 0.28349999999999986 8.879215576171875 0.2737499999999998 Q 8.860465576171874 0.2639999999999998 8.842465576171875 0.2639999999999998 L 8.695465576171875 0.2639999999999998 L 8.695465576171875 0.4919999999999999 M 9.50994140625 0.008999999999999897 L 9.83694140625 0.008999999999999897 L 10.17594140625 1.0739999999999998 L 9.87894140625 1.0739999999999998 L 9.81444140625 0.8654999999999998 L 9.53094140625 0.8654999999999998 L 9.46794140625 1.0739999999999998 L 9.16944140625 1.0739999999999998 L 9.50994140625 0.008999999999999897 M 9.76794140625 0.6704999999999999 L 9.67344140625 0.2954999999999999 L 9.57444140625 0.6704999999999999 L 9.76794140625 0.6704999999999999 M 10.901936279296875 0.3569999999999999 Q 10.901936279296875 0.3569999999999999 10.876436279296875 0.34199999999999986 Q 10.850936279296874 0.32699999999999985 10.808936279296875 0.3082499999999998 Q 10.766936279296875 0.28949999999999987 10.717436279296875 0.27449999999999986 Q 10.667936279296875 0.25949999999999984 10.619936279296875 0.25949999999999984 Q 10.582436279296875 0.25949999999999984 10.558436279296876 0.27149999999999985 Q 10.534436279296875 0.28349999999999986 10.534436279296875 0.31199999999999983 Q 10.534436279296875 0.33899999999999986 10.558436279296876 0.3554999999999998 Q 10.582436279296875 0.3719999999999998 10.626686279296875 0.38549999999999984 Q 10.670936279296875 0.3989999999999998 10.732436279296875 0.41849999999999987 Q 10.831436279296875 0.4484999999999998 10.903436279296875 0.4874999999999998 Q 10.975436279296876 0.5264999999999999 11.014436279296875 0.5872499999999998 Q 11.053436279296875 0.6479999999999999 11.053436279296875 0.7484999999999998 Q 11.053436279296875 0.8444999999999998 11.018936279296875 0.9097499999999998 Q 10.984436279296876 0.9749999999999999 10.925936279296875 1.0139999999999998 Q 10.867436279296875 1.053 10.795436279296876 1.07025 Q 10.723436279296875 1.0875 10.648436279296876 1.0875 Q 10.571936279296875 1.0875 10.488686279296875 1.0717499999999998 Q 10.405436279296875 1.0559999999999998 10.327436279296876 1.0282499999999999 Q 10.249436279296875 1.0005 10.184936279296876 0.9629999999999999 L 10.310936279296875 0.7064999999999999 Q 10.310936279296875 0.7064999999999999 10.340936279296875 0.7244999999999998 Q 10.370936279296876 0.7424999999999998 10.420436279296876 0.7649999999999999 Q 10.469936279296874 0.7874999999999999 10.530686279296875 0.8054999999999999 Q 10.591436279296875 0.8234999999999999 10.652936279296876 0.8234999999999999 Q 10.700936279296876 0.8234999999999999 10.719686279296875 0.8107499999999999 Q 10.738436279296875 0.7979999999999998 10.738436279296875 0.7769999999999999 Q 10.738436279296875 0.7454999999999998 10.705436279296876 0.7282499999999998 Q 10.672436279296875 0.7109999999999999 10.619186279296875 0.6952499999999998 Q 10.565936279296874 0.6794999999999998 10.501436279296875 0.6584999999999999 Q 10.408436279296875 0.6269999999999998 10.348436279296875 0.5872499999999998 Q 10.288436279296874 0.5474999999999999 10.259936279296875 0.4927499999999998 Q 10.231436279296876 0.43799999999999983 10.231436279296876 0.3599999999999999 Q 10.231436279296876 0.24149999999999983 10.286936279296874 0.1619999999999998 Q 10.342436279296875 0.0824999999999998 10.433186279296875 0.04124999999999979 Q 10.523936279296874 -2.220446049250313e-16 10.628936279296875 -2.220446049250313e-16 Q 10.706936279296874 -2.220446049250313e-16 10.779686279296875 0.018749999999999822 Q 10.852436279296874 0.03749999999999987 10.916186279296875 0.06449999999999978 Q 10.979936279296876 0.0914999999999998 11.027936279296876 0.11549999999999983 L 10.901936279296875 0.3569999999999999 M 11.83194287109375 0.3569999999999999 Q 11.83194287109375 0.3569999999999999 11.80644287109375 0.34199999999999986 Q 11.78094287109375 0.32699999999999985 11.73894287109375 0.3082499999999998 Q 11.69694287109375 0.28949999999999987 11.64744287109375 0.27449999999999986 Q 11.59794287109375 0.25949999999999984 11.54994287109375 0.25949999999999984 Q 11.51244287109375 0.25949999999999984 11.488442871093751 0.27149999999999985 Q 11.46444287109375 0.28349999999999986 11.46444287109375 0.31199999999999983 Q 11.46444287109375 0.33899999999999986 11.488442871093751 0.3554999999999998 Q 11.51244287109375 0.3719999999999998 11.55669287109375 0.38549999999999984 Q 11.60094287109375 0.3989999999999998 11.66244287109375 0.41849999999999987 Q 11.76144287109375 0.4484999999999998 11.83344287109375 0.4874999999999998 Q 11.90544287109375 0.5264999999999999 11.94444287109375 0.5872499999999998 Q 11.98344287109375 0.6479999999999999 11.98344287109375 0.7484999999999998 Q 11.98344287109375 0.8444999999999998 11.94894287109375 0.9097499999999998 Q 11.914442871093751 0.9749999999999999 11.85594287109375 1.0139999999999998 Q 11.79744287109375 1.053 11.725442871093751 1.07025 Q 11.65344287109375 1.0875 11.57844287109375 1.0875 Q 11.50194287109375 1.0875 11.41869287109375 1.0717499999999998 Q 11.33544287109375 1.0559999999999998 11.257442871093751 1.0282499999999999 Q 11.17944287109375 1.0005 11.114942871093751 0.9629999999999999 L 11.24094287109375 0.7064999999999999 Q 11.24094287109375 0.7064999999999999 11.27094287109375 0.7244999999999998 Q 11.300942871093751 0.7424999999999998 11.350442871093751 0.7649999999999999 Q 11.39994287109375 0.7874999999999999 11.46069287109375 0.8054999999999999 Q 11.52144287109375 0.8234999999999999 11.582942871093751 0.8234999999999999 Q 11.630942871093751 0.8234999999999999 11.64969287109375 0.8107499999999999 Q 11.66844287109375 0.7979999999999998 11.66844287109375 0.7769999999999999 Q 11.66844287109375 0.7454999999999998 11.635442871093751 0.7282499999999998 Q 11.60244287109375 0.7109999999999999 11.54919287109375 0.6952499999999998 Q 11.49594287109375 0.6794999999999998 11.43144287109375 0.6584999999999999 Q 11.33844287109375 0.6269999999999998 11.27844287109375 0.5872499999999998 Q 11.21844287109375 0.5474999999999999 11.18994287109375 0.4927499999999998 Q 11.161442871093751 0.43799999999999983 11.161442871093751 0.3599999999999999 Q 11.161442871093751 0.24149999999999983 11.21694287109375 0.1619999999999998 Q 11.27244287109375 0.0824999999999998 11.36319287109375 0.04124999999999979 Q 11.45394287109375 -2.220446049250313e-16 11.55894287109375 -2.220446049250313e-16 Q 11.63694287109375 -2.220446049250313e-16 11.70969287109375 0.018749999999999822 Q 11.78244287109375 0.03749999999999987 11.84619287109375 0.06449999999999978 Q 11.909942871093751 0.0914999999999998 11.957942871093751 0.11549999999999983 L 11.83194287109375 0.3569999999999999 M 12.116949462890625 1.0739999999999998 L 12.116949462890625 0.008999999999999897 L 12.409449462890626 0.008999999999999897 L 12.409449462890626 1.0739999999999998 L 12.116949462890625 1.0739999999999998 M 13.076974365234376 1.0829999999999997 Q 12.955474365234375 1.0829999999999997 12.856474365234376 1.0372499999999998 Q 12.757474365234376 0.9914999999999998 12.686224365234375 0.9142499999999998 Q 12.614974365234376 0.8369999999999999 12.576724365234375 0.7402499999999999 Q 12.538474365234375 0.6434999999999998 12.538474365234375 0.5399999999999998 Q 12.538474365234375 0.4334999999999999 12.578974365234375 0.3374999999999998 Q 12.619474365234376 0.24149999999999983 12.692224365234376 0.16574999999999984 Q 12.764974365234375 0.08999999999999986 12.864724365234375 0.046499999999999764 Q 12.964474365234375 0.0029999999999998916 13.082974365234376 0.0029999999999998916 Q 13.204474365234375 0.0029999999999998916 13.303474365234376 0.04874999999999985 Q 13.402474365234376 0.0944999999999998 13.472974365234375 0.17249999999999988 Q 13.543474365234376 0.25049999999999983 13.581724365234376 0.34724999999999984 Q 13.619974365234375 0.44399999999999984 13.619974365234375 0.5459999999999998 Q 13.619974365234375 0.6509999999999998 13.580224365234375 0.7469999999999999 Q 13.540474365234376 0.8429999999999999 13.467724365234375 0.9187499999999998 Q 13.394974365234376 0.9944999999999998 13.295974365234375 1.0387499999999998 Q 13.196974365234375 1.0829999999999997 13.076974365234376 1.0829999999999997 M 12.835474365234376 0.5429999999999998 Q 12.835474365234376 0.5969999999999998 12.850474365234376 0.6472499999999999 Q 12.865474365234375 0.6974999999999998 12.895474365234376 0.7372499999999998 Q 12.925474365234376 0.7769999999999999 12.971224365234375 0.8002499999999999 Q 13.016974365234375 0.8234999999999999 13.079974365234376 0.8234999999999999 Q 13.142974365234375 0.8234999999999999 13.189474365234375 0.7994999999999999 Q 13.235974365234375 0.7754999999999999 13.265224365234376 0.7342499999999998 Q 13.294474365234375 0.6929999999999998 13.308724365234376 0.6427499999999998 Q 13.322974365234376 0.5924999999999998 13.322974365234376 0.5399999999999998 Q 13.322974365234376 0.4859999999999999 13.307974365234376 0.4364999999999998 Q 13.292974365234375 0.3869999999999998 13.262974365234376 0.34724999999999984 Q 13.232974365234377 0.3074999999999998 13.186474365234375 0.2849999999999998 Q 13.139974365234377 0.26249999999999984 13.078474365234376 0.26249999999999984 Q 13.015474365234375 0.26249999999999984 12.969724365234375 0.28649999999999987 Q 12.923974365234375 0.3104999999999998 12.893974365234376 0.35024999999999984 Q 12.863974365234375 0.3899999999999998 12.849724365234376 0.4402499999999998 Q 12.835474365234376 0.4904999999999998 12.835474365234376 0.5429999999999998 M 14.041496337890626 0.5504999999999999 L 14.041496337890626 1.0739999999999998 L 13.748996337890626 1.0739999999999998 L 13.748996337890626 0.008999999999999897 L 13.976996337890625 0.008999999999999897 L 14.404496337890626 0.5504999999999999 L 14.404496337890626 0.008999999999999897 L 14.696996337890626 0.008999999999999897 L 14.696996337890626 1.0739999999999998 L 14.464496337890626 1.0739999999999998 L 14.041496337890626 0.5504999999999999" fill="#619e2b" fill-rule="nonzero"></path></g><g><path d=" M 0.0645 1.5928124999999997 L 0.255 2.0600625 L 0.44475000000000003 1.5928124999999997 L 0.4995 1.5928124999999997 L 0.279 2.1253124999999997 L 0.231 2.1253124999999997 L 0.00975 1.5928124999999997 L 0.0645 1.5928124999999997 M 0.7714039306640624 2.1290625 Q 0.7151539306640624 2.1290625 0.6694039306640625 2.1065625 Q 0.6236539306640625 2.0840625 0.5906539306640625 2.0454375 Q 0.5576539306640624 2.0068124999999997 0.5396539306640624 1.9584374999999996 Q 0.5216539306640624 1.9100624999999998 0.5216539306640624 1.8590624999999998 Q 0.5216539306640624 1.8058124999999996 0.5404039306640624 1.7574374999999998 Q 0.5591539306640625 1.7090624999999997 0.5932789306640625 1.6711874999999998 Q 0.6274039306640624 1.6333124999999997 0.6731539306640624 1.6111874999999998 Q 0.7189039306640624 1.5890624999999998 0.7721539306640625 1.5890624999999998 Q 0.8284039306640625 1.5890624999999998 0.8741539306640624 1.6123124999999998 Q 0.9199039306640624 1.6355624999999998 0.9525289306640625 1.6745624999999997 Q 0.9851539306640624 1.7135624999999997 1.0031539306640624 1.7615624999999997 Q 1.0211539306640625 1.8095624999999997 1.0211539306640625 1.8598124999999996 Q 1.0211539306640625 1.9130624999999997 1.0024039306640624 1.9614374999999997 Q 0.9836539306640624 2.0098125 0.9499039306640624 2.0476875 Q 0.9161539306640625 2.0855624999999995 0.8704039306640625 2.1073125 Q 0.8246539306640625 2.1290625 0.7714039306640624 2.1290625 M 0.5741539306640624 1.8590624999999998 Q 0.5741539306640624 1.9025624999999997 0.5884039306640625 1.9426874999999997 Q 0.6026539306640625 1.9828124999999996 0.6289039306640625 2.0139375 Q 0.6551539306640625 2.0450625 0.6915289306640624 2.0634374999999996 Q 0.7279039306640624 2.0818125 0.7714039306640624 2.0818125 Q 0.8171539306640625 2.0818125 0.8535289306640624 2.0626874999999996 Q 0.8899039306640624 2.0435624999999997 0.9157789306640625 2.0116875 Q 0.9416539306640624 1.9798124999999998 0.9551539306640624 1.9400624999999998 Q 0.9686539306640625 1.9003124999999996 0.9686539306640625 1.8590624999999998 Q 0.9686539306640625 1.8155624999999997 0.9544039306640624 1.7758124999999998 Q 0.9401539306640625 1.7360624999999996 0.9135289306640624 1.7045624999999998 Q 0.8869039306640625 1.6730624999999997 0.8509039306640624 1.6550624999999997 Q 0.8149039306640624 1.6370624999999996 0.7714039306640624 1.6370624999999996 Q 0.7264039306640624 1.6370624999999996 0.6900289306640625 1.6558124999999997 Q 0.6536539306640624 1.6745624999999997 0.6277789306640624 1.7064374999999998 Q 0.6019039306640624 1.7383124999999997 0.5880289306640625 1.7780624999999997 Q 0.5741539306640624 1.8178124999999996 0.5741539306640624 1.8590624999999998 M 1.4325113525390623 1.6925624999999997 Q 1.4212613525390623 1.6798124999999997 1.4062613525390621 1.6696874999999998 Q 1.391261352539062 1.6595624999999998 1.3725113525390622 1.6520624999999998 Q 1.3537613525390622 1.6445624999999997 1.332386352539062 1.6400624999999998 Q 1.311011352539062 1.6355624999999998 1.287011352539062 1.6355624999999998 Q 1.217261352539062 1.6355624999999998 1.1846363525390622 1.6621874999999997 Q 1.152011352539062 1.6888124999999996 1.152011352539062 1.7345624999999998 Q 1.152011352539062 1.7660624999999996 1.1673863525390622 1.7840624999999997 Q 1.1827613525390621 1.8020624999999997 1.215761352539062 1.8133124999999997 Q 1.2487613525390622 1.8245624999999996 1.299761352539062 1.8365624999999997 Q 1.356761352539062 1.8485624999999997 1.3980113525390623 1.8650624999999996 Q 1.439261352539062 1.8815624999999998 1.461761352539062 1.9096874999999998 Q 1.4842613525390622 1.9378124999999997 1.4842613525390622 1.9858124999999998 Q 1.4842613525390622 2.0225625 1.4700113525390621 2.0495624999999995 Q 1.4557613525390622 2.0765624999999996 1.4302613525390622 2.0945625 Q 1.404761352539062 2.1125624999999997 1.369511352539062 2.1211874999999996 Q 1.334261352539062 2.1298125 1.2922613525390623 2.1298125 Q 1.251011352539062 2.1298125 1.2131363525390622 2.1211874999999996 Q 1.175261352539062 2.1125624999999997 1.141511352539062 2.0956875 Q 1.1077613525390622 2.0788124999999997 1.0785113525390622 2.0525624999999996 L 1.104761352539062 2.0098125 Q 1.1190113525390621 2.0248125 1.1388863525390622 2.0379374999999995 Q 1.158761352539062 2.0510624999999996 1.1831363525390621 2.0615624999999995 Q 1.2075113525390622 2.0720625 1.2356363525390621 2.0776874999999997 Q 1.263761352539062 2.0833125 1.293761352539062 2.0833125 Q 1.357511352539062 2.0833125 1.393136352539062 2.0600625 Q 1.4287613525390621 2.0368125 1.4287613525390621 1.9910624999999997 Q 1.4287613525390621 1.9580624999999996 1.410761352539062 1.9381874999999997 Q 1.392761352539062 1.9183124999999996 1.356761352539062 1.9055624999999998 Q 1.320761352539062 1.8928124999999998 1.2682613525390622 1.8808124999999998 Q 1.2127613525390621 1.8680624999999997 1.1745113525390622 1.8523124999999996 Q 1.1362613525390621 1.8365624999999997 1.117136352539062 1.8106874999999998 Q 1.0980113525390622 1.7848124999999997 1.0980113525390622 1.7420624999999996 Q 1.0980113525390622 1.6925624999999997 1.122386352539062 1.6584374999999998 Q 1.146761352539062 1.6243124999999998 1.1895113525390622 1.6066874999999996 Q 1.2322613525390622 1.5890624999999998 1.287761352539062 1.5890624999999998 Q 1.323011352539062 1.5890624999999998 1.3533863525390621 1.5961874999999996 Q 1.3837613525390622 1.6033124999999997 1.4096363525390623 1.6168124999999995 Q 1.4355113525390621 1.6303124999999996 1.458011352539062 1.6505624999999997 L 1.4325113525390623 1.6925624999999997 M 1.7700109863281248 2.1253124999999997 L 1.7700109863281248 1.5928124999999997 L 1.9905109863281247 1.5928124999999997 Q 2.025010986328125 1.5928124999999997 2.0538859863281247 1.6070624999999996 Q 2.082760986328125 1.6213124999999997 2.103760986328125 1.6456874999999997 Q 2.1247609863281247 1.6700624999999998 2.1367609863281247 1.6996874999999996 Q 2.1487609863281247 1.7293124999999998 2.1487609863281247 1.7600624999999996 Q 2.1487609863281247 1.8035624999999997 2.129635986328125 1.8421874999999996 Q 2.1105109863281246 1.8808124999999998 2.0760109863281246 1.9048124999999998 Q 2.0415109863281247 1.9288124999999998 1.9950109863281247 1.9288124999999998 L 1.8225109863281248 1.9288124999999998 L 1.8225109863281248 2.1253124999999997 L 1.7700109863281248 2.1253124999999997 M 1.8225109863281248 1.8823124999999998 L 1.9927609863281246 1.8823124999999998 Q 2.024260986328125 1.8823124999999998 2.047510986328125 1.8650624999999996 Q 2.070760986328125 1.8478124999999996 2.083510986328125 1.8200624999999997 Q 2.096260986328125 1.7923124999999998 2.096260986328125 1.7600624999999996 Q 2.096260986328125 1.7270624999999997 2.081260986328125 1.6993124999999998 Q 2.0662609863281247 1.6715624999999998 2.0418859863281247 1.6554374999999997 Q 2.0175109863281246 1.6393124999999997 1.9882609863281249 1.6393124999999997 L 1.8225109863281248 1.6393124999999997 L 1.8225109863281248 1.8823124999999998 M 2.237642944335937 2.1253124999999997 L 2.237642944335937 1.5928124999999997 L 2.4626429443359372 1.5928124999999997 Q 2.497142944335937 1.5928124999999997 2.5256429443359374 1.6070624999999996 Q 2.554142944335937 1.6213124999999997 2.575517944335937 1.6456874999999997 Q 2.5968929443359374 1.6700624999999998 2.6085179443359374 1.6996874999999996 Q 2.6201429443359374 1.7293124999999998 2.6201429443359374 1.7600624999999996 Q 2.6201429443359374 1.7983124999999998 2.6055179443359373 1.8320624999999997 Q 2.590892944335937 1.8658124999999997 2.5642679443359375 1.8890624999999996 Q 2.5376429443359374 1.9123124999999996 2.5016429443359374 1.9198124999999997 L 2.6321429443359374 2.1253124999999997 L 2.5728929443359374 2.1253124999999997 L 2.447642944335937 1.9288124999999998 L 2.2901429443359373 1.9288124999999998 L 2.2901429443359373 2.1253124999999997 L 2.237642944335937 2.1253124999999997 M 2.2901429443359373 1.8823124999999998 L 2.4641429443359373 1.8823124999999998 Q 2.495642944335937 1.8823124999999998 2.518892944335937 1.8650624999999996 Q 2.542142944335937 1.8478124999999996 2.554892944335937 1.8196874999999997 Q 2.567642944335937 1.7915624999999997 2.567642944335937 1.7600624999999996 Q 2.567642944335937 1.7278124999999998 2.553017944335937 1.7004374999999996 Q 2.5383929443359374 1.6730624999999997 2.5140179443359374 1.6561874999999997 Q 2.4896429443359374 1.6393124999999997 2.459642944335937 1.6393124999999997 L 2.2901429443359373 1.6393124999999997 L 2.2901429443359373 1.8823124999999998 M 2.7285292968749997 2.1253124999999997 L 2.7285292968749997 1.5928124999999997 L 2.781029296875 1.5928124999999997 L 2.781029296875 2.1253124999999997 L 2.7285292968749997 2.1253124999999997 M 3.3873936767578123 2.1253124999999997 L 3.3873936767578123 1.6918124999999997 L 3.1946436767578126 2.0285624999999996 L 3.161643676757812 2.0285624999999996 L 2.9681436767578124 1.6918124999999997 L 2.9681436767578124 2.1253124999999997 L 2.915643676757812 2.1253124999999997 L 2.915643676757812 1.5928124999999997 L 2.9696436767578125 1.5928124999999997 L 3.1773936767578124 1.9573124999999998 L 3.3866436767578123 1.5928124999999997 L 3.439893676757812 1.5928124999999997 L 3.439893676757812 2.1253124999999997 L 3.3873936767578123 2.1253124999999997 M 3.932279296875 2.0788124999999997 L 3.932279296875 2.1253124999999997 L 3.5745292968749998 2.1253124999999997 L 3.5745292968749998 1.5928124999999997 L 3.9255292968749997 1.5928124999999997 L 3.9255292968749997 1.6393124999999997 L 3.627029296875 1.6393124999999997 L 3.627029296875 1.8313124999999997 L 3.887279296875 1.8313124999999997 L 3.887279296875 1.8755624999999998 L 3.627029296875 1.8755624999999998 L 3.627029296875 2.0788124999999997 L 3.932279296875 2.0788124999999997 M 4.249160888671875 2.1290625 Q 4.186160888671875 2.1290625 4.142660888671875 2.1065625 Q 4.099160888671875 2.0840625 4.073660888671875 2.0461875 Q 4.048160888671875 2.0083124999999997 4.0365358886718745 1.9603124999999997 Q 4.024910888671875 1.9123124999999996 4.024910888671875 1.8613124999999997 L 4.024910888671875 1.5928124999999997 L 4.076660888671875 1.5928124999999997 L 4.076660888671875 1.8613124999999997 Q 4.076660888671875 1.9025624999999997 4.085285888671875 1.9423124999999997 Q 4.093910888671875 1.9820624999999996 4.113410888671875 2.0135625 Q 4.132910888671875 2.0450625 4.165910888671875 2.0634374999999996 Q 4.198910888671875 2.0818125 4.2484108886718746 2.0818125 Q 4.299410888671875 2.0818125 4.332785888671875 2.0626874999999996 Q 4.366160888671875 2.0435624999999997 4.385285888671875 2.0120625 Q 4.404410888671875 1.9805624999999998 4.412660888671875 1.9411874999999996 Q 4.420910888671875 1.9018124999999997 4.420910888671875 1.8613124999999997 L 4.420910888671875 1.5928124999999997 L 4.473410888671875 1.5928124999999997 L 4.473410888671875 1.8613124999999997 Q 4.473410888671875 1.9145624999999997 4.461410888671875 1.9633124999999998 Q 4.449410888671875 2.0120625 4.422785888671875 2.0488125 Q 4.396160888671875 2.0855624999999995 4.353410888671875 2.1073125 Q 4.310660888671875 2.1290625 4.249160888671875 2.1290625 M 4.599789550781249 2.1253124999999997 L 4.599789550781249 1.5928124999999997 L 4.82478955078125 1.5928124999999997 Q 4.8592895507812495 1.5928124999999997 4.88778955078125 1.6070624999999996 Q 4.91628955078125 1.6213124999999997 4.93766455078125 1.6456874999999997 Q 4.95903955078125 1.6700624999999998 4.970664550781249 1.6996874999999996 Q 4.98228955078125 1.7293124999999998 4.98228955078125 1.7600624999999996 Q 4.98228955078125 1.7983124999999998 4.967664550781249 1.8320624999999997 Q 4.9530395507812495 1.8658124999999997 4.926414550781249 1.8890624999999996 Q 4.899789550781249 1.9123124999999996 4.86378955078125 1.9198124999999997 L 4.994289550781249 2.1253124999999997 L 4.93503955078125 2.1253124999999997 L 4.809789550781249 1.9288124999999998 L 4.65228955078125 1.9288124999999998 L 4.65228955078125 2.1253124999999997 L 4.599789550781249 2.1253124999999997 M 4.65228955078125 1.8823124999999998 L 4.826289550781249 1.8823124999999998 Q 4.857789550781249 1.8823124999999998 4.881039550781249 1.8650624999999996 Q 4.904289550781249 1.8478124999999996 4.91703955078125 1.8196874999999997 Q 4.9297895507812495 1.7915624999999997 4.9297895507812495 1.7600624999999996 Q 4.9297895507812495 1.7278124999999998 4.91516455078125 1.7004374999999996 Q 4.900539550781249 1.6730624999999997 4.876164550781249 1.6561874999999997 Q 4.851789550781249 1.6393124999999997 4.82178955078125 1.6393124999999997 L 4.65228955078125 1.6393124999999997 L 4.65228955078125 1.8823124999999998 M 5.401925903320312 1.6925624999999997 Q 5.390675903320312 1.6798124999999997 5.375675903320312 1.6696874999999998 Q 5.360675903320312 1.6595624999999998 5.341925903320312 1.6520624999999998 Q 5.323175903320312 1.6445624999999997 5.301800903320312 1.6400624999999998 Q 5.280425903320312 1.6355624999999998 5.256425903320312 1.6355624999999998 Q 5.186675903320312 1.6355624999999998 5.154050903320312 1.6621874999999997 Q 5.121425903320312 1.6888124999999996 5.121425903320312 1.7345624999999998 Q 5.121425903320312 1.7660624999999996 5.136800903320312 1.7840624999999997 Q 5.1521759033203125 1.8020624999999997 5.185175903320312 1.8133124999999997 Q 5.218175903320312 1.8245624999999996 5.2691759033203125 1.8365624999999997 Q 5.326175903320312 1.8485624999999997 5.367425903320312 1.8650624999999996 Q 5.4086759033203125 1.8815624999999998 5.431175903320312 1.9096874999999998 Q 5.453675903320312 1.9378124999999997 5.453675903320312 1.9858124999999998 Q 5.453675903320312 2.0225625 5.439425903320312 2.0495624999999995 Q 5.425175903320312 2.0765624999999996 5.399675903320312 2.0945625 Q 5.374175903320312 2.1125624999999997 5.3389259033203125 2.1211874999999996 Q 5.303675903320312 2.1298125 5.261675903320312 2.1298125 Q 5.220425903320312 2.1298125 5.182550903320312 2.1211874999999996 Q 5.144675903320312 2.1125624999999997 5.110925903320312 2.0956875 Q 5.077175903320312 2.0788124999999997 5.047925903320312 2.0525624999999996 L 5.074175903320312 2.0098125 Q 5.088425903320312 2.0248125 5.108300903320312 2.0379374999999995 Q 5.1281759033203125 2.0510624999999996 5.1525509033203125 2.0615624999999995 Q 5.176925903320312 2.0720625 5.205050903320312 2.0776874999999997 Q 5.233175903320312 2.0833125 5.263175903320312 2.0833125 Q 5.326925903320312 2.0833125 5.3625509033203125 2.0600625 Q 5.398175903320312 2.0368125 5.398175903320312 1.9910624999999997 Q 5.398175903320312 1.9580624999999996 5.380175903320312 1.9381874999999997 Q 5.3621759033203125 1.9183124999999996 5.326175903320312 1.9055624999999998 Q 5.290175903320312 1.8928124999999998 5.237675903320312 1.8808124999999998 Q 5.182175903320312 1.8680624999999997 5.143925903320312 1.8523124999999996 Q 5.1056759033203125 1.8365624999999997 5.086550903320312 1.8106874999999998 Q 5.067425903320312 1.7848124999999997 5.067425903320312 1.7420624999999996 Q 5.067425903320312 1.6925624999999997 5.091800903320312 1.6584374999999998 Q 5.116175903320312 1.6243124999999998 5.158925903320312 1.6066874999999996 Q 5.201675903320312 1.5890624999999998 5.257175903320312 1.5890624999999998 Q 5.2924259033203125 1.5890624999999998 5.322800903320312 1.5961874999999996 Q 5.353175903320312 1.6033124999999997 5.379050903320312 1.6168124999999995 Q 5.404925903320312 1.6303124999999996 5.427425903320312 1.6505624999999997 L 5.401925903320312 1.6925624999999997 M 5.881171142578125 1.5928124999999997 L 5.9254211425781245 1.5928124999999997 L 6.146671142578125 2.1253124999999997 L 6.0911711425781245 2.1253124999999997 L 6.022171142578125 1.9588124999999996 L 5.782921142578124 1.9588124999999996 L 5.7146711425781245 2.1253124999999997 L 5.658421142578125 2.1253124999999997 L 5.881171142578125 1.5928124999999997 M 6.010171142578125 1.9175624999999996 L 5.9029211425781245 1.6543124999999996 L 5.794171142578125 1.9175624999999996 L 6.010171142578125 1.9175624999999996 M 5.8331711425781245 1.4375624999999999 L 5.886421142578125 1.4375624999999999 L 5.931421142578125 1.5073124999999998 L 5.898421142578124 1.5200624999999997 L 5.8331711425781245 1.4375624999999999 M 6.365692016601562 1.5928124999999997 L 6.556192016601562 2.0600625 L 6.745942016601562 1.5928124999999997 L 6.8006920166015625 1.5928124999999997 L 6.580192016601562 2.1253124999999997 L 6.532192016601562 2.1253124999999997 L 6.310942016601563 1.5928124999999997 L 6.365692016601562 1.5928124999999997 M 7.072595947265625 2.1290625 Q 7.016345947265624 2.1290625 6.9705959472656245 2.1065625 Q 6.9248459472656245 2.0840625 6.891845947265625 2.0454375 Q 6.858845947265625 2.0068124999999997 6.840845947265625 1.9584374999999996 Q 6.822845947265625 1.9100624999999998 6.822845947265625 1.8590624999999998 Q 6.822845947265625 1.8058124999999996 6.841595947265625 1.7574374999999998 Q 6.860345947265625 1.7090624999999997 6.894470947265625 1.6711874999999998 Q 6.928595947265625 1.6333124999999997 6.974345947265625 1.6111874999999998 Q 7.020095947265625 1.5890624999999998 7.073345947265625 1.5890624999999998 Q 7.129595947265625 1.5890624999999998 7.175345947265625 1.6123124999999998 Q 7.221095947265625 1.6355624999999998 7.2537209472656246 1.6745624999999997 Q 7.286345947265625 1.7135624999999997 7.304345947265625 1.7615624999999997 Q 7.3223459472656245 1.8095624999999997 7.3223459472656245 1.8598124999999996 Q 7.3223459472656245 1.9130624999999997 7.303595947265625 1.9614374999999997 Q 7.284845947265625 2.0098125 7.2510959472656245 2.0476875 Q 7.217345947265625 2.0855624999999995 7.171595947265625 2.1073125 Q 7.125845947265625 2.1290625 7.072595947265625 2.1290625 M 6.875345947265624 1.8590624999999998 Q 6.875345947265624 1.9025624999999997 6.889595947265625 1.9426874999999997 Q 6.903845947265625 1.9828124999999996 6.930095947265625 2.0139375 Q 6.956345947265625 2.0450625 6.992720947265624 2.0634374999999996 Q 7.029095947265625 2.0818125 7.072595947265625 2.0818125 Q 7.118345947265625 2.0818125 7.154720947265625 2.0626874999999996 Q 7.191095947265625 2.0435624999999997 7.216970947265625 2.0116875 Q 7.242845947265625 1.9798124999999998 7.256345947265625 1.9400624999999998 Q 7.269845947265625 1.9003124999999996 7.269845947265625 1.8590624999999998 Q 7.269845947265625 1.8155624999999997 7.255595947265625 1.7758124999999998 Q 7.241345947265625 1.7360624999999996 7.214720947265625 1.7045624999999998 Q 7.188095947265625 1.6730624999999997 7.152095947265625 1.6550624999999997 Q 7.116095947265625 1.6370624999999996 7.072595947265625 1.6370624999999996 Q 7.027595947265625 1.6370624999999996 6.991220947265624 1.6558124999999997 Q 6.954845947265625 1.6745624999999997 6.928970947265625 1.7064374999999998 Q 6.903095947265625 1.7383124999999997 6.889220947265625 1.7780624999999997 Q 6.875345947265624 1.8178124999999996 6.875345947265624 1.8590624999999998 M 7.78168505859375 1.6393124999999997 L 7.59193505859375 1.6393124999999997 L 7.59193505859375 2.1253124999999997 L 7.5394350585937495 2.1253124999999997 L 7.5394350585937495 1.6393124999999997 L 7.349685058593749 1.6393124999999997 L 7.349685058593749 1.5928124999999997 L 7.78168505859375 1.5928124999999997 L 7.78168505859375 1.6393124999999997 M 7.862299072265625 2.1253124999999997 L 7.862299072265625 1.5928124999999997 L 8.087299072265624 1.5928124999999997 Q 8.121799072265626 1.5928124999999997 8.150299072265625 1.6070624999999996 Q 8.178799072265624 1.6213124999999997 8.200174072265625 1.6456874999999997 Q 8.221549072265624 1.6700624999999998 8.233174072265625 1.6996874999999996 Q 8.244799072265625 1.7293124999999998 8.244799072265625 1.7600624999999996 Q 8.244799072265625 1.7983124999999998 8.230174072265624 1.8320624999999997 Q 8.215549072265626 1.8658124999999997 8.188924072265625 1.8890624999999996 Q 8.162299072265625 1.9123124999999996 8.126299072265624 1.9198124999999997 L 8.256799072265625 2.1253124999999997 L 8.197549072265625 2.1253124999999997 L 8.072299072265626 1.9288124999999998 L 7.914799072265625 1.9288124999999998 L 7.914799072265625 2.1253124999999997 L 7.862299072265625 2.1253124999999997 M 7.914799072265625 1.8823124999999998 L 8.088799072265624 1.8823124999999998 Q 8.120299072265626 1.8823124999999998 8.143549072265625 1.8650624999999996 Q 8.166799072265626 1.8478124999999996 8.179549072265624 1.8196874999999997 Q 8.192299072265625 1.7915624999999997 8.192299072265625 1.7600624999999996 Q 8.192299072265625 1.7278124999999998 8.177674072265624 1.7004374999999996 Q 8.163049072265625 1.6730624999999997 8.138674072265625 1.6561874999999997 Q 8.114299072265625 1.6393124999999997 8.084299072265624 1.6393124999999997 L 7.914799072265625 1.6393124999999997 L 7.914799072265625 1.8823124999999998 M 8.710935424804687 2.0788124999999997 L 8.710935424804687 2.1253124999999997 L 8.353185424804687 2.1253124999999997 L 8.353185424804687 1.5928124999999997 L 8.704185424804686 1.5928124999999997 L 8.704185424804686 1.6393124999999997 L 8.405685424804686 1.6393124999999997 L 8.405685424804686 1.8313124999999997 L 8.665935424804687 1.8313124999999997 L 8.665935424804687 1.8755624999999998 L 8.405685424804686 1.8755624999999998 L 8.405685424804686 2.0788124999999997 L 8.710935424804687 2.0788124999999997 M 9.003445678710937 2.1253124999999997 L 9.003445678710937 1.5928124999999997 L 9.223945678710937 1.5928124999999997 Q 9.258445678710936 1.5928124999999997 9.287320678710937 1.6070624999999996 Q 9.316195678710937 1.6213124999999997 9.337195678710936 1.6456874999999997 Q 9.358195678710937 1.6700624999999998 9.370195678710937 1.6996874999999996 Q 9.382195678710936 1.7293124999999998 9.382195678710936 1.7600624999999996 Q 9.382195678710936 1.8035624999999997 9.363070678710937 1.8421874999999996 Q 9.343945678710936 1.8808124999999998 9.309445678710937 1.9048124999999998 Q 9.274945678710937 1.9288124999999998 9.228445678710937 1.9288124999999998 L 9.055945678710936 1.9288124999999998 L 9.055945678710936 2.1253124999999997 L 9.003445678710937 2.1253124999999997 M 9.055945678710936 1.8823124999999998 L 9.226195678710937 1.8823124999999998 Q 9.257695678710936 1.8823124999999998 9.280945678710937 1.8650624999999996 Q 9.304195678710936 1.8478124999999996 9.316945678710937 1.8200624999999997 Q 9.329695678710937 1.7923124999999998 9.329695678710937 1.7600624999999996 Q 9.329695678710937 1.7270624999999997 9.314695678710937 1.6993124999999998 Q 9.299695678710936 1.6715624999999998 9.275320678710937 1.6554374999999997 Q 9.250945678710936 1.6393124999999997 9.221695678710937 1.6393124999999997 L 9.055945678710936 1.6393124999999997 L 9.055945678710936 1.8823124999999998 M 9.68557763671875 2.1290625 Q 9.629327636718749 2.1290625 9.583577636718749 2.1065625 Q 9.537827636718749 2.0840625 9.50482763671875 2.0454375 Q 9.47182763671875 2.0068124999999997 9.45382763671875 1.9584374999999996 Q 9.435827636718749 1.9100624999999998 9.435827636718749 1.8590624999999998 Q 9.435827636718749 1.8058124999999996 9.45457763671875 1.7574374999999998 Q 9.47332763671875 1.7090624999999997 9.50745263671875 1.6711874999999998 Q 9.541577636718749 1.6333124999999997 9.587327636718749 1.6111874999999998 Q 9.633077636718749 1.5890624999999998 9.68632763671875 1.5890624999999998 Q 9.74257763671875 1.5890624999999998 9.78832763671875 1.6123124999999998 Q 9.83407763671875 1.6355624999999998 9.866702636718749 1.6745624999999997 Q 9.899327636718748 1.7135624999999997 9.917327636718749 1.7615624999999997 Q 9.93532763671875 1.8095624999999997 9.93532763671875 1.8598124999999996 Q 9.93532763671875 1.9130624999999997 9.916577636718749 1.9614374999999997 Q 9.897827636718748 2.0098125 9.864077636718749 2.0476875 Q 9.83032763671875 2.0855624999999995 9.78457763671875 2.1073125 Q 9.73882763671875 2.1290625 9.68557763671875 2.1290625 M 9.488327636718749 1.8590624999999998 Q 9.488327636718749 1.9025624999999997 9.50257763671875 1.9426874999999997 Q 9.51682763671875 1.9828124999999996 9.543077636718749 2.0139375 Q 9.569327636718748 2.0450625 9.60570263671875 2.0634374999999996 Q 9.64207763671875 2.0818125 9.68557763671875 2.0818125 Q 9.73132763671875 2.0818125 9.767702636718749 2.0626874999999996 Q 9.804077636718748 2.0435624999999997 9.82995263671875 2.0116875 Q 9.855827636718749 1.9798124999999998 9.869327636718749 1.9400624999999998 Q 9.88282763671875 1.9003124999999996 9.88282763671875 1.8590624999999998 Q 9.88282763671875 1.8155624999999997 9.868577636718749 1.7758124999999998 Q 9.854327636718748 1.7360624999999996 9.82770263671875 1.7045624999999998 Q 9.80107763671875 1.6730624999999997 9.765077636718749 1.6550624999999997 Q 9.729077636718749 1.6370624999999996 9.68557763671875 1.6370624999999996 Q 9.64057763671875 1.6370624999999996 9.60420263671875 1.6558124999999997 Q 9.56782763671875 1.6745624999999997 9.541952636718749 1.7064374999999998 Q 9.51607763671875 1.7383124999999997 9.50220263671875 1.7780624999999997 Q 9.488327636718749 1.8178124999999996 9.488327636718749 1.8590624999999998 M 10.03543505859375 2.1253124999999997 L 10.03543505859375 1.5928124999999997 L 10.26043505859375 1.5928124999999997 Q 10.29493505859375 1.5928124999999997 10.323435058593748 1.6070624999999996 Q 10.35193505859375 1.6213124999999997 10.373310058593749 1.6456874999999997 Q 10.39468505859375 1.6700624999999998 10.40631005859375 1.6996874999999996 Q 10.417935058593748 1.7293124999999998 10.417935058593748 1.7600624999999996 Q 10.417935058593748 1.7983124999999998 10.40331005859375 1.8320624999999997 Q 10.38868505859375 1.8658124999999997 10.36206005859375 1.8890624999999996 Q 10.335435058593749 1.9123124999999996 10.29943505859375 1.9198124999999997 L 10.429935058593749 2.1253124999999997 L 10.370685058593748 2.1253124999999997 L 10.245435058593749 1.9288124999999998 L 10.087935058593748 1.9288124999999998 L 10.087935058593748 2.1253124999999997 L 10.03543505859375 2.1253124999999997 M 10.087935058593748 1.8823124999999998 L 10.26193505859375 1.8823124999999998 Q 10.293435058593749 1.8823124999999998 10.31668505859375 1.8650624999999996 Q 10.339935058593749 1.8478124999999996 10.35268505859375 1.8196874999999997 Q 10.36543505859375 1.7915624999999997 10.36543505859375 1.7600624999999996 Q 10.36543505859375 1.7278124999999998 10.35081005859375 1.7004374999999996 Q 10.336185058593749 1.6730624999999997 10.31181005859375 1.6561874999999997 Q 10.287435058593749 1.6393124999999997 10.25743505859375 1.6393124999999997 L 10.087935058593748 1.6393124999999997 L 10.087935058593748 1.8823124999999998 M 10.89905712890625 1.6393124999999997 L 10.70930712890625 1.6393124999999997 L 10.70930712890625 2.1253124999999997 L 10.65680712890625 2.1253124999999997 L 10.65680712890625 1.6393124999999997 L 10.46705712890625 1.6393124999999997 L 10.46705712890625 1.5928124999999997 L 10.89905712890625 1.5928124999999997 L 10.89905712890625 1.6393124999999997 M 11.337421142578124 2.0788124999999997 L 11.337421142578124 2.1253124999999997 L 10.979671142578125 2.1253124999999997 L 10.979671142578125 1.5928124999999997 L 11.330671142578124 1.5928124999999997 L 11.330671142578124 1.6393124999999997 L 11.032171142578123 1.6393124999999997 L 11.032171142578123 1.8313124999999997 L 11.292421142578124 1.8313124999999997 L 11.292421142578124 1.8755624999999998 L 11.032171142578123 1.8755624999999998 L 11.032171142578123 2.0788124999999997 L 11.337421142578124 2.0788124999999997" fill="#ea0707" fill-rule="nonzero"></path></g><g clip-path="url(#SvgjsClipPath1015)"><g clip-path="url(#SvgjsClipPath10133901b8e2-01b3-4bfe-8a07-536b04937f3b)"><path d=" M -1.71391504045138 0.327813281805302 C -1.71391504045138 0.327813281805302 -1.7424285814711573 0.2242641065229526 -1.6839007867463511 0.1777420132801579 C -1.673395797949591 0.17023844985390066 -1.6613900964675796 0.1642355991128949 -1.649384394985568 0.1627348864276435 L -1.5563402084999787 0.1417249088341233 C -1.5428337943327155 0.13872348346362048 -1.527826667480201 0.13872348346362048 -1.5143202533129383 0.1417249088341233 C -1.4888081376636637 0.14922847226038047 -1.4542917459028806 0.16723702448339783 -1.4392846190503663 0.22126268115244968 C -1.4167739287715946 0.30230116615602753 -1.3507425706205312 0.6084465539473216 -1.4302803429388578 0.7540156844167113 C -1.445287469791372 0.7825292254364888 -1.4843059996079093 0.787031363492243 -1.506816689886681 0.76301996052822 C -1.5758494734082473 0.690985751636151 -1.6583886710970765 0.5304094943142466 -1.71391504045138 0.327813281805302 Z" fill="#f4ab0b" transform="matrix(1,0,0,1,0,0)" fill-rule="nonzero"></path></g><g clip-path="url(#SvgjsClipPath10133901b8e2-01b3-4bfe-8a07-536b04937f3b)"><path d=" M -1.6884029248021053 -0.03385847534029533 L -1.6043630144280245 -0.05186702756331265 L -1.5893558875755103 0.12971920735211176 L -1.625372992021545 0.13722277077836897 Z" fill="#f4ab0b" transform="matrix(1,0,0,1,0,0)" fill-rule="nonzero"></path></g><g clip-path="url(#SvgjsClipPath10133901b8e2-01b3-4bfe-8a07-536b04937f3b)"><path d=" M -1.7634385590646775 0.014164330587750781 L -1.8084599396222207 0.07419283799780843 L -1.6718950852643393 0.14772775957512907 L -1.6493843949855678 0.14322562151937482 Z" fill="#f4ab0b" transform="matrix(1,0,0,1,0,0)" fill-rule="nonzero"></path></g><g clip-path="url(#SvgjsClipPath10133901b8e2-01b3-4bfe-8a07-536b04937f3b)"><path d=" M -1.514320253312938 -0.04136203876655254 L -1.449789607847126 -0.005344934320517976 L -1.5413330816474642 0.11921421855535166 L -1.565344484611487 0.123716356611106 Z" fill="#f4ab0b" transform="matrix(1,0,0,1,0,0)" fill-rule="nonzero"></path></g><g clip-path="url(#SvgjsClipPath10133901b8e2-01b3-4bfe-8a07-536b04937f3b)"><path d=" M -1.3702518355287998 0.341319695972565 C -1.3702518355287998 0.341319695972565 -1.4137725034010917 0.3548261101398279 -1.4843059996079093 0.3518246847693251 C -1.554839495814727 0.3473225467135708 -1.6583886710970763 0.4028489160678741 -1.5593416338704813 0.6279558188555903 C -1.5053159772014295 0.7074935911739167 -1.445287469791372 0.7089943038591683 -1.4182746414568457 0.6969886023771567 C -1.398765376548577 0.6894850389508994 -1.3747539735845538 0.7014907404329108 -1.3582461340467882 0.7059928784886653 C -1.3417382945090224 0.7104950165444198 -1.2952162012662276 0.6819814755246423 -1.2742062236727074 0.6459643710786076 C -1.2531962460791874 0.6099472666325731 -1.1031249775540435 0.3308147071758049 -1.3702518355287998 0.341319695972565 Z" fill="#ea0707" transform="matrix(1,0,0,1,0,0)" fill-rule="nonzero"></path></g><g clip-path="url(#SvgjsClipPath10133901b8e2-01b3-4bfe-8a07-536b04937f3b)"><path d=" M -1.3552447086762855 0.2752883378215015 L -1.3987653765485772 0.2587804982837357 L -1.4242774921978516 0.3518246847693251 L -1.407769652660086 0.36232967356608525 C -1.407769652660086 0.36232967356608525 -1.404768227289583 0.30230116615602753 -1.3552447086762855 0.2752883378215015 Z" fill="#ea0707" transform="matrix(1,0,0,1,0,0)" fill-rule="nonzero"></path></g><g clip-path="url(#SvgjsClipPath10133901b8e2-01b3-4bfe-8a07-536b04937f3b)"><path d=" M -1.737926443415403 0.14622704688987764 C -1.737926443415403 0.14622704688987764 -1.7649392717499288 0.28579332661826173 -1.7469307195269117 0.33831827060206215 L -1.8174642157337293 0.36683181162183953 L -1.8339720552714953 0.17173916253915217 L -1.737926443415403 0.14622704688987764 Z" fill="#ffda03" transform="matrix(1,0,0,1,0,0)" fill-rule="nonzero"></path></g><g clip-path="url(#SvgjsClipPath10133901b8e2-01b3-4bfe-8a07-536b04937f3b)"><path d=" M -1.1286370932033178 0.8380555947907923 C -1.1286370932033178 0.8380555947907923 -1.0250879179209684 0.7720242366397286 -1.0851164253310261 0.7164978672854254 C -1.1451449327410836 0.660971497931122 -1.2652019475611989 0.6369600949670992 -1.3867596750665658 0.6309572442260931 C -1.509818115257184 0.6219529681145844 -1.6403801188740592 0.456874572736926 -1.662890809152831 0.39834677801211976 C -1.6854014994316024 0.3398189832873136 -1.8249677791599863 0.28129118856250745 -1.8654870216617754 0.42235818097614286 C -1.9075069768488158 0.5634251733897785 -1.6553872457265737 0.9371026320173874 -1.1511477834820893 0.8605662850695639" fill="#ffda03" transform="matrix(1,0,0,1,0,0)" fill-rule="nonzero"></path></g><g clip-path="url(#SvgjsClipPath10133901b8e2-01b3-4bfe-8a07-536b04937f3b)"><path d=" M -1.4772631549760238 1.9373846638195125 C -1.4339415203073755 2.036948420689564 -1.452425265926723 2.140984159391843 -1.5185477609472913 2.169755016003846 C -1.5846702559678596 2.198525872615849 -1.6733922349407253 2.1411368995758306 -1.7167138696093736 2.0415731427057793 C -1.7600355042780218 1.9420093858357281 -1.7415517586586744 1.8379736471334491 -1.6754292636381063 1.8092027905214463 C -1.6093067686175382 1.780431933909443 -1.520584789644672 1.8378209069494615 -1.4772631549760238 1.9373846638195125 Z" fill="#619e2b" transform="matrix(1,0,0,1,0,0)" fill-rule="nonzero"></path></g><g clip-path="url(#SvgjsClipPath10133901b8e2-01b3-4bfe-8a07-536b04937f3b)"><path d=" M -0.7719912228406272 1.9369254457378258 C -0.7286695881719789 2.036489202607877 -0.7471533337913261 2.1405249413101557 -0.8132758288118944 2.169295797922159 C -0.8793983238324621 2.198066654534162 -0.9681203028053285 2.1406776814941435 -1.0114419374739767 2.041113924624092 C -1.054763572142625 1.9415501677540412 -1.0362798265232775 1.837514429051762 -0.9701573315027092 1.8087435724397591 C -0.9040348364821409 1.7799727158277563 -0.8153128575092756 1.8373616888677748 -0.7719912228406272 1.9369254457378258 Z" fill="#619e2b" transform="matrix(1,0,0,1,0,0)" fill-rule="nonzero"></path></g><g clip-path="url(#SvgjsClipPath10133901b8e2-01b3-4bfe-8a07-536b04937f3b)"><path d=" M -0.6168940675325763 1.77299959770244 L -2.135615305007035 1.77299959770244 C -2.1626281333415607 1.77299959770244 -2.1851388236203326 1.7504889074236685 -2.1851388236203326 1.7234760790891421 C -2.1851388236203326 1.6964632507546162 -2.1626281333415607 1.6739525604758447 -2.135615305007035 1.6739525604758447 L -0.6168940675325763 1.6739525604758447 C -0.5778755377160392 1.6739525604758447 -0.5418584332700045 1.654443295567576 -0.5193477429912328 1.6229283291772956 C -0.4968370527124608 1.589912650101764 -0.4908342019714549 1.5478926949147236 -0.5058413288239698 1.5103748777834376 L -0.8359981195792865 0.6489657964491101 C -0.8510052464318012 0.6099472666325727 -0.8465031083760468 0.5649258860750295 -0.8224917054120238 0.5304094943142463 C -0.7984803024480007 0.4958931025534633 -0.7594617726314634 0.4748831249599429 -0.7174418174444228 0.4748831249599429 L -0.4548170975254202 0.4748831249599429 C -0.42780426919089454 0.4748831249599429 -0.4052935789121228 0.4973938152387146 -0.4052935789121228 0.5244066435732404 C -0.4052935789121228 0.5514194719077663 -0.42780426919089454 0.573930162186538 -0.4548170975254202 0.573930162186538 L -0.7174418174444228 0.573930162186538 C -0.7309482316116858 0.573930162186538 -0.7384517950379432 0.5814337256127952 -0.7414532204084456 0.587436576353801 C -0.7444546457789485 0.5919387144095551 -0.7504574965199546 0.6024437032063154 -0.7444546457789485 0.6159501173735783 L -0.41429785502363115 1.4773591987079058 C -0.3887857393743568 1.5448912695442205 -0.3977900154858658 1.621427616492044 -0.4383092579876544 1.6799554112168502 C -0.4788285004894435 1.738483205941657 -0.5463605713257584 1.77299959770244 -0.6168940675325763 1.77299959770244 Z" fill="#619e2b" transform="matrix(1,0,0,1,0,0)" fill-rule="nonzero"></path></g><g clip-path="url(#SvgjsClipPath10133901b8e2-01b3-4bfe-8a07-536b04937f3b)"><path d=" M -1.2366884065414214 1.1487031206378404 C -1.2366884065414214 1.1487031206378404 -1.3837582496960628 1.2852679749957217 -1.6538865330413222 1.1907230758248808 C -1.9240148163865816 1.0961781766540397 -1.970536909629376 1.1862209377691266 -1.970536909629376 1.1862209377691266 C -1.970536909629376 1.1862209377691266 -1.8894984246257984 0.9326004939616329 -1.6283744173920476 0.9566118969256558 C -1.3672504101582965 0.9806232998896789 -1.2231819923741585 1.1156874415623086 -0.9770651119929219 0.9326004939616329 C -0.9770651119929219 0.9326004939616329 -1.1301378058885692 1.388817150278071 -1.592357312946013 1.3588028965730425 C -1.6658922345233336 1.3497986204615338 -1.9120091149045697 1.2762636988842129 -2.0965967751904975 1.3633050346287967 C -2.0935953498199944 1.375310736110808 -2.08909321176424 1.3873164375928195 -2.0845910737084856 1.3978214263895798 C -1.6148680032247844 1.4938670382456718 -0.9440494329173903 1.5013706016719293 -0.8269938434677777 0.7990370649742543 L -1.103124977554043 0.11921421855535147 C -1.1136299663508031 0.09220139022082549 -1.1391420820000777 0.07569355068305969 -1.167655623019855 0.07569355068305969 L -1.2306855558004157 0.07569355068305969 C -1.2757069363579587 0.07569355068305969 -1.3087226154334908 0.11621279318484859 -1.2997183393219816 0.16123417374239182 L -1.2471933953381815 0.40885176680887964 C -1.2306855558004157 0.4838874010714517 -1.2892133505252215 0.5559216099635208 -1.3657496974730454 0.5559216099635208 L -1.7229193165628884 0.5559216099635208 C -1.7799463986024433 0.5559216099635208 -1.8294699172157407 0.515402367461732 -1.8414756186977526 0.45987599810742863 L -1.9105084022193188 0.13272063272261436 C -1.9180119656455759 0.09970495364708268 -1.9465255066653533 0.07719426336831103 -1.9795411857408851 0.07719426336831103 L -2.063581096114966 0.07719426336831103 C -2.1025996259315036 0.07719426336831103 -2.1341145923217835 0.11020994244384277 -2.1341145923217835 0.14922847226038025 L -2.108602476672509 1.2792651242547155 C -2.108602476672509 1.2852679749957217 -2.1071017639872576 1.2912708257367274 -2.1071017639872576 1.2972736764777328 C -2.053076107318206 1.259755859346447 -1.9840433237966393 1.2312423183266696 -1.894000562681553 1.2207373295299098 C -1.740927868785906 1.2057302026773953 -1.407769652660086 1.3392936316647737 -1.2366884065414214 1.1487031206378404 Z" fill="#78c62e" transform="matrix(1,0,0,1,0,0)" fill-rule="nonzero"></path></g><g clip-path="url(#SvgjsClipPath10133901b8e2-01b3-4bfe-8a07-536b04937f3b)"><path d=" M -2.084591073708486 1.3978214263895798 C -2.065081808800217 1.4473449450028772 -2.0365682677804395 1.4968684636161749 -1.9975497379639024 1.5388884188032155 C -1.9435240812948504 1.5989169262132732 -1.866987734347027 1.633433317974056 -1.7949535254549578 1.633433317974056 L -0.7609624853167145 1.633433317974056 C -0.6829254256836397 1.633433317974056 -0.6183947802178278 1.591413362787016 -0.5913819518833014 1.5238812919507012 C -0.5733733996602848 1.475858486022655 -0.5748741123455356 1.4203321166683516 -0.5973848026243074 1.3663064599992996 L -0.8284945561530295 0.7975363522890034 C -0.9440494329173903 1.5013706016719293 -1.6148680032247846 1.4953677509309238 -2.084591073708486 1.3978214263895798 Z" fill="#619e2b" transform="matrix(1,0,0,1,0,0)" fill-rule="nonzero"></path></g></g></g><defs><clipPath id="SvgjsClipPath1015"><path d=" M -2.1851388236203326 -0.05186702756331263 h 1.7851388236203327 v 2.229046555126625 h -1.7851388236203327 Z"></path></clipPath><clipPath id="SvgjsClipPath10133901b8e2-01b3-4bfe-8a07-536b04937f3b"><path d=" M -2.1851388236203326 -0.05186702756331263 L -0.3999999999999999 -0.05186702756331263 L -0.3999999999999999 2.1771795275633123 L -2.185138823620332 2.1771795275633123 Z"></path></clipPath></defs></svg>